<svg xmlns="http://www.w3.org/2000/svg" width="754" height="150" viewBox="0 0 754 150">
  <defs>
    <style>
      .cls-1 {
        fill-rule: evenodd;
      }
    </style>
  </defs>
  <path id="ALEX_FRESA" data-name="ALEX FRESA" class="cls-1" d="M73.788,88.911q1.224-11.985,5.949-37.662Q82.142,73.471,84.5,88.911H73.788ZM55.766,31.3L39.888,120.887H72.257l1.837-16.141h11.2l1.662,16.141h32.063L101.039,31.3H55.766Zm125.845,89.584H122.3V31.3h29.745V99.541h29.569v21.346Zm33.157-68.238V65.772h29.438V87.118H214.768V99.541h29.438v21.346H184.892V31.3h59.314V52.649H214.768ZM315.112,76.1l15.659,44.792H299.146L289.129,92.323l-9.973,28.564H247.487L263.146,76.1,247.487,31.3h31.669l9.973,28.563L299.146,31.3h31.625Zm64.65-23.446V65.816H409.2V87.162H379.762v33.725H349.843V31.3H409.2V52.649H379.762Zm62.6,18.547h4.549l0.044,0.044q2.93,0,4.986-3.412a15.59,15.59,0,0,0,2.012-8.136,15.829,15.829,0,0,0-2.012-8.18q-2.056-3.368-4.986-3.368h-4.593V71.2Zm26.332,14q8.618,8.18,13.823,22.746a73.447,73.447,0,0,1,3.543,12.9h-30.4q-4.9-21.3-13.035-32.981h-0.35v33.025l-29.788-.044V31.3h29.876v0.087h23.27q8.442,0,14.435,7.174a26.3,26.3,0,0,1,5.993,17.366q0,22.046-17.366,29.263h0Zm50.522-32.544V65.772h29.438V87.118H519.211V99.541h29.438v21.346H489.335V31.3h59.314V52.649H519.211Zm110.142,3.106q0-10.279-3.106-14.522-3.148-4.286-12.772-7.13-9.668-2.8-23.358-2.8a77.367,77.367,0,0,0-21.39,2.581q-8.836,2.581-12.817,7.13-3.98,4.593-3.98,14.435,0,6.868,2.8,11.285a20.7,20.7,0,0,0,7.043,6.911,190.124,190.124,0,0,0,17.409,8q13.078,5.424,16.491,7.786,3.237,2.362,3.237,9.929a7.339,7.339,0,0,1-1.706,5.249,7.133,7.133,0,0,1-5.249,1.749q-3.5,0-4.9-1.4t-1.4-6.212V88.343H552.98v5.6q0,9.668,3.105,14.916,3.061,5.248,13.079,8.661,10.017,3.367,24.1,3.368a78.8,78.8,0,0,0,22.615-2.931q9.666-2.975,13.078-7.305,3.369-4.374,3.368-13.56,0-12.641-6.08-18.328-6.125-5.686-29.525-14.566-8.181-3.061-9.93-5.249-1.881-2.187-1.881-6.474a6.794,6.794,0,0,1,1.619-4.986,6.361,6.361,0,0,1,4.768-1.662q2.886,0,4.111,1.225,1.269,1.225,1.269,5.686v6.43h32.675V55.755Zm40.155,33.156q1.224-11.985,5.949-37.662,2.4,22.221,4.768,37.662H669.508ZM651.486,31.3l-15.878,89.584h32.369l1.837-16.141h11.2l1.662,16.141h32.063L696.759,31.3H651.486Z"/>
</svg>
