<svg xmlns="http://www.w3.org/2000/svg" width="754" height="150" viewBox="0 0 754 150">
  <defs>
    <style>
      .cls-1 {
        fill-rule: evenodd;
      }
    </style>
  </defs>
  <path id="ALEX_FRESA" data-name="ALEX FRESA" class="cls-1" d="M69.584,88.936L73.759,53.12l4.175,35.815h-8.35Zm11.938,31.2h32.007L99.687,31.44H47.831l-13.843,88.7H66l0.952-7.91H80.57ZM117.7,31.367v88.77H176.3V96.773H149.345V31.367H117.7ZM236.5,64.106H213.065V54.878h26.954V31.44H181.425v88.7h58.594V96.846H213.065V87.471H236.5V64.106Zm27.978,11.646-19.409,44.385h33.252l6.885-25.2,6.812,25.2h33.251L305.863,75.752l19.409-44.385H292.021l-6.812,25.2-6.885-25.2H245.072ZM417.265,64.106H393.827V54.878H420.78V31.44H362.187v88.7h31.64V87.471h23.438V64.106Zm48.047,6.738q0,2.051-.586,2.417a10.6,10.6,0,0,1-3.809.366H456.6V54.878h4.321a16.793,16.793,0,0,1,3.735.22,2.056,2.056,0,0,1,.66,1.9V70.845ZM456.6,95.015q6.517,0.148,7.544,4.98l3,20.142h31.64l-4.1-20.948Q492.7,88.2,484.647,84.321q10.327-3.881,10.621-17.651V55.977q0-24.536-36.036-24.536H424.955v88.7H456.6V95.015ZM558.109,64.106H534.672V54.878h26.953V31.44H503.031v88.7h58.594V96.846H534.672V87.471h23.437V64.106Zm49-1.025h31.055V47.847q-4.175-18.018-35.376-18.018-16.846.074-26,5.566-10.035,5.933-10.034,18.091v11.06q0,10.84,14.429,16.846a118.68,118.68,0,0,0,13.183,4.321q9.154,2.637,12.744,4.1v8.276q0,2.051-4.028,2.051h-0.293q-4.4,0-4.394-2.051V88.5H567.338v15.161q4.246,18.018,35.449,18.018,16.845,0,26-5.493,10.034-5.932,10.034-18.091V87.031q0-10.912-14.5-16.919a127.476,127.476,0,0,0-13.11-4.248q-9.228-2.637-12.817-4.028v-8.35q0-1.61,4.394-1.611h0.366q3.955,0,3.955,1.611v9.595Zm70.386,25.854,4.175-35.815,4.175,35.815h-8.35Zm11.939,31.2h32.006L707.6,31.44H655.741l-13.843,88.7h32.007l0.952-7.91H688.48Z"/>
</svg>
